<?xml version="1.0" encoding="UTF-8" standalone="no"?>
<!-- Created with Inkscape (http://www.inkscape.org/) -->

<svg
   xmlns:dc="http://purl.org/dc/elements/1.1/"
   xmlns:cc="http://creativecommons.org/ns#"
   xmlns:rdf="http://www.w3.org/1999/02/22-rdf-syntax-ns#"
   xmlns:svg="http://www.w3.org/2000/svg"
   xmlns="http://www.w3.org/2000/svg"
   xmlns:sodipodi="http://sodipodi.sourceforge.net/DTD/sodipodi-0.dtd"
   xmlns:inkscape="http://www.inkscape.org/namespaces/inkscape"
   width="237.59682"
   height="237.28763"
   id="svg2"
   version="1.1"
   inkscape:version="0.48.4 r9939"
   sodipodi:docname="logo-icon.svg"
   inkscape:export-filename="/home/leandrost/projects/dozeoudez/logo2.png"
   inkscape:export-xdpi="160.33"
   inkscape:export-ydpi="160.33">
  <defs
     id="defs4" />
  <sodipodi:namedview
     id="base"
     pagecolor="#ffffff"
     bordercolor="#666666"
     borderopacity="1.0"
     inkscape:pageopacity="0.0"
     inkscape:pageshadow="2"
     inkscape:zoom="1.4142136"
     inkscape:cx="165.34549"
     inkscape:cy="87.451875"
     inkscape:document-units="px"
     inkscape:current-layer="layer3"
     showgrid="false"
     height="1052.36px"
     width="325px"
     fit-margin-top="0"
     fit-margin-left="-0.2"
     fit-margin-right="0"
     fit-margin-bottom="0"
     inkscape:window-width="1680"
     inkscape:window-height="1011"
     inkscape:window-x="1680"
     inkscape:window-y="0"
     inkscape:window-maximized="1"
     showborder="true"
     borderlayer="false"
     showguides="true"
     inkscape:guide-bbox="true" />
  <metadata
     id="metadata7">
    <rdf:RDF>
      <cc:Work
         rdf:about="">
        <dc:format>image/svg+xml</dc:format>
        <dc:type
           rdf:resource="http://purl.org/dc/dcmitype/StillImage" />
        <dc:title></dc:title>
      </cc:Work>
    </rdf:RDF>
  </metadata>
  <g
     inkscape:groupmode="layer"
     id="layer3"
     inkscape:label="whell"
     style="display:inline"
     transform="translate(-25.999462,-23.754725)">
    <path
       sodipodi:type="arc"
       style="fill:#000000;fill-opacity:1;stroke:#ffffff;stroke-opacity:1;display:inline"
       id="path4007-4"
       sodipodi:cx="90.016891"
       sodipodi:cy="65.168922"
       sodipodi:rx="72.75338"
       sodipodi:ry="72.75338"
       d="m 162.77027,65.168922 c 0,40.180578 -32.5728,72.753378 -72.753379,72.753378 -40.180582,0 -72.753379,-32.5728 -72.753379,-72.753378 0,-40.180582 32.572797,-72.7533794 72.753379,-72.7533794 40.180579,0 72.753379,32.5727974 72.753379,72.7533794 z"
       transform="matrix(1.6228403,0,0,1.6193653,-1.3831128,36.861463)" />
  </g>
  <g
     inkscape:groupmode="layer"
     id="layer4"
     inkscape:label="ball"
     style="display:inline"
     transform="translate(-25.999462,-23.754725)">
    <g
       transform="translate(-6.389391,-792.55414)"
       style="display:inline"
       id="g4261">
      <path
         inkscape:connector-curvature="0"
         id="path2460"
         transform="translate(8.0391547,792.91411)"
         d="m 154.5,90.03125 c -26.0201,23.61892 -89.626772,12.419 -106.5625,46.59375 -0.108936,1.8658 -0.1875,3.73199 -0.1875,5.625 0,23.41312 8.474569,44.87318 22.5,61.46875 L 70.65625,203.5 C 94.999591,173.22716 123.27077,141.44933 168,103.53125 l -13.5,-13.5 z M 83.75,123.75 l 14.0625,0 5.625,5.65625 0,9.25 -11.125,11.15625 11.125,0 0,9.09375 -25.3125,0 0,-8.1875 15.65625,-15.625 0,-2.28125 -1.15625,-1.15625 -3.6875,0 -1.15625,1.15625 0,3.53125 -9.65625,0 0,-6.9375 5.625,-5.65625 z m -18.75,0.0312 7.5,0 0,27.1875 3.53125,0 0,7.9375 -17.5625,0 0,-7.9375 4.375,0 0,-15.09375 -4.375,0 0,-5.5625 L 65,123.78125 z"
         style="fill:#ff6600;fill-rule:evenodd;stroke-width:1px;stroke-miterlimit:4;stroke-dashoffset:0;marker-start:none;marker-mid:none;marker-end:none" />
      <path
         id="path2462"
         d="m 106.19825,856.74222 c 21.26109,0.21248 48.27175,13.89023 50.89741,21.71036 -0.864,19.63006 -91.102079,13.87774 -100.592286,46.2744 l -0.1335,0.0165 c 2.98291,-27.33852 17.537014,-51.21521 38.664605,-66.61623 3.450163,-1.00232 7.234601,-1.42433 11.163771,-1.38509 l 0,10e-6 z"
         stroke-miterlimit="4"
         inkscape:connector-curvature="0"
         style="fill:#ff6600;fill-rule:evenodd;stroke-width:1px;stroke-miterlimit:4;stroke-dashoffset:0;marker-start:none;marker-mid:none;marker-end:none" />
      <path
         id="path2464"
         d="m 151.08765,839.88793 c 4.78144,0 9.49074,0.35371 14.08419,1.03462 14.17498,15.3442 6.6109,29.12909 -1.00124,33.34146 -6.49662,4.62645 -23.25187,-24.34003 -65.264639,-18.80669 14.994659,-9.83965 32.919879,-15.56939 52.181689,-15.56939 z"
         stroke-miterlimit="4"
         inkscape:connector-curvature="0"
         style="fill:#ff6600;fill-rule:evenodd;stroke-width:1px;stroke-miterlimit:4;stroke-dashoffset:0;marker-start:none;marker-mid:none;marker-end:none" />
      <path
         id="path2466"
         d="m 194.52498,920.78875 c 0.86855,0.0165 1.77865,0.19117 2.73674,0.51691 12.41924,9.74491 35.13761,56.64111 21.86052,80.01634 -0.003,0 0.003,0.014 0,0.016 -17.29725,17.638 -41.39772,28.586 -68.03459,28.586 -0.73264,0 -1.4578,-6e-4 -2.18618,-0.017 28.69489,-20.7378 22.44817,-103.42464 45.62351,-109.11865 z"
         stroke-miterlimit="4"
         inkscape:connector-curvature="0"
         style="fill:#ff6600;fill-rule:evenodd;stroke-width:1px;stroke-miterlimit:4;stroke-dashoffset:0;marker-start:none;marker-mid:none;marker-end:none" />
      <path
         id="path2468"
         d="m 217.4535,909.29072 c 10.43216,0.33107 22.60648,5.79921 28.33522,17.68866 l 0.30039,0.71769 c 0.19192,2.46814 0.30037,4.95871 0.30037,7.47596 0,23.57385 -8.58038,45.15163 -22.77836,61.79364 13.14082,-41.25076 -26.8424,-77.51986 -22.49462,-81.55154 2.87375,-4.16517 9.19916,-6.35082 16.337,-6.12441 z"
         stroke-miterlimit="4"
         inkscape:connector-curvature="0"
         style="fill:#ff6600;fill-rule:evenodd;stroke-width:1px;stroke-miterlimit:4;stroke-dashoffset:0;marker-start:none;marker-mid:none;marker-end:none" />
      <path
         id="path2470"
         d="m 220.47389,869.8919 c 13.4633,14.30259 22.57734,32.75375 25.16464,53.23309 -10.12851,-16.93893 -25.23753,-23.08685 -49.66177,-10.27945 l -12.53207,-15.75293 c 8.18266,-7.38337 25.43985,-20.13175 37.0292,-27.20071 z"
         stroke-miterlimit="4"
         inkscape:connector-curvature="0"
         style="fill:#ff6600;fill-rule:evenodd;stroke-width:1px;stroke-miterlimit:4;stroke-dashoffset:0;marker-start:none;marker-mid:none;marker-end:none" />
      <path
         id="path2472"
         d="m 169.29377,841.62342 c 18.66679,3.61416 35.39478,12.68639 48.4601,25.48171 l -0.23362,0.41716 c -13.74387,6.25788 -25.49875,16.51627 -37.6133,26.03238 l -14.45156,-13.5001 c 9.41597,-9.49693 16.68101,-19.86588 3.83838,-38.43115 z"
         stroke-miterlimit="4"
         inkscape:connector-curvature="0"
         style="fill:#ff6600;fill-rule:evenodd;stroke-width:1px;stroke-miterlimit:4;stroke-dashoffset:0;marker-start:none;marker-mid:none;marker-end:none" />
      <path
         inkscape:connector-curvature="0"
         transform="translate(8.0391547,792.91411)"
         id="path3332"
         d="m 172.53125,107.375 c -36.82019,26.91239 -68.77517,62.24907 -99.65625,99.34375 15.425577,16.78678 36.78793,28.02 60.75,30.375 33.86451,-14.0837 20.89381,-91.9089 51.4375,-114.28125 L 172.53125,107.375 z m -38.71875,60.5 15.46875,0 5.59375,5.65625 0,23.90625 -5.59375,5.625 -15.46875,0 -5.625,-5.625 0,-23.90625 5.625,-5.65625 z m -18.75,0.0625 7.5,0 0,27.1875 3.53125,0 0,7.9375 -17.59375,0 0,-7.9375 4.40625,0 0,-15.09375 -4.40625,0 0,-5.5625 6.5625,-6.53125 z m 23.90625,7.875 -1.125,1.15625 0,17.0625 1.125,1.09375 5.15625,0 1.09375,-1.09375 0,-17.0625 -1.09375,-1.15625 -5.15625,0 z"
         style="fill:#ff6600;fill-rule:evenodd;stroke-width:1px;stroke-miterlimit:4;stroke-dashoffset:0;marker-start:none;marker-mid:none;marker-end:none" />
    </g>
  </g>
  <g
     inkscape:groupmode="layer"
     id="layer5"
     inkscape:label="title whell"
     transform="translate(-25.999462,-23.754725)">
    <path
       style="fill:none;stroke:#ffffff;stroke-width:9.24859524;stroke-miterlimit:4;stroke-opacity:1;stroke-dasharray:none;display:inline"
       d="m 253.21928,142.39375 c 0,59.93359 -48.58577,108.51935 -108.51935,108.51935 -59.933587,0 -108.519356,-48.58576 -108.519356,-108.51935 0,-59.933575 48.585769,-108.519344 108.519356,-108.519344 59.93358,0 108.51935,48.585769 108.51935,108.519344 z"
       id="path4319"
       inkscape:connector-curvature="0" />
    <path
       style="fill:none;stroke:none;display:inline"
       d="m 255.7043,142.39375 c 0,61.30602 -49.69835,111.00438 -111.00437,111.00438 -61.306032,0 -111.004377,-49.69836 -111.004377,-111.00438 0,-61.306024 49.698345,-111.004375 111.004377,-111.004375 61.30602,0 111.00437,49.698351 111.00437,111.004375 z"
       id="path4503"
       inkscape:connector-curvature="0" />
    <path
       inkscape:connector-curvature="0"
       id="path4626"
       d="m 148.0978,142.39375 c 0,1.87659 -1.52128,3.39787 -3.39787,3.39787 -1.8766,0 -3.39787,-1.52128 -3.39787,-3.39787 0,-1.87659 1.52127,-3.39787 3.39787,-3.39787 1.87659,0 3.39787,1.52128 3.39787,3.39787 z"
       style="fill:none;stroke:none;display:inline" />
    <path
       transform="matrix(-1.3991216,0.27390566,0.27390566,1.3991216,259.53006,-27.958234)"
       d="m 193,101.78787 c 0,50.25791 -40.74209,91 -91,91 -50.257912,0 -91,-40.74209 -91,-91 0,-50.25791 40.742088,-90.999998 91,-90.999998 50.25791,0 91,40.742088 91,90.999998 z"
       sodipodi:ry="91"
       sodipodi:rx="91"
       sodipodi:cy="101.78787"
       sodipodi:cx="102"
       id="path4675"
       style="fill:none;stroke:none;display:inline"
       sodipodi:type="arc" />
    <path
       sodipodi:type="arc"
       style="fill:none;stroke:none;display:inline"
       id="path4732"
       sodipodi:cx="102"
       sodipodi:cy="101.78787"
       sodipodi:rx="91"
       sodipodi:ry="91"
       d="m 193,101.78787 c 0,50.25791 -40.74209,91 -91,91 -50.257912,0 -91,-40.74209 -91,-91 0,-50.25791 40.742088,-90.999998 91,-90.999998 50.25791,0 91,40.742088 91,90.999998 z"
       transform="matrix(0.04417418,0,0,-0.04417418,140.19416,146.89015)" />
  </g>
</svg>
